<?xml version="1.0" standalone="no"?><svg xmlns="http://www.w3.org/2000/svg" viewBox="0 0 1440 320"><path fill="#000b76" fill-opacity="1" d="M0,160L14.1,165.3C28.2,171,56,181,85,202.7C112.9,224,141,256,169,261.3C197.6,267,226,245,254,218.7C282.4,192,311,160,339,170.7C367.1,181,395,235,424,240C451.8,245,480,203,508,181.3C536.5,160,565,160,593,154.7C621.2,149,649,139,678,149.3C705.9,160,734,192,762,213.3C790.6,235,819,245,847,218.7C875.3,192,904,128,932,133.3C960,139,988,213,1016,218.7C1044.7,224,1073,160,1101,128C1129.4,96,1158,96,1186,101.3C1214.1,107,1242,117,1271,144C1298.8,171,1327,213,1355,224C1383.5,235,1412,213,1426,202.7L1440,192L1440,320L1425.9,320C1411.8,320,1384,320,1355,320C1327.1,320,1299,320,1271,320C1242.4,320,1214,320,1186,320C1157.6,320,1129,320,1101,320C1072.9,320,1045,320,1016,320C988.2,320,960,320,932,320C903.5,320,875,320,847,320C818.8,320,791,320,762,320C734.1,320,706,320,678,320C649.4,320,621,320,593,320C564.7,320,536,320,508,320C480,320,452,320,424,320C395.3,320,367,320,339,320C310.6,320,282,320,254,320C225.9,320,198,320,169,320C141.2,320,113,320,85,320C56.5,320,28,320,14,320L0,320Z"></path></svg>